<svg width="20" height="18" viewBox="0 0 20 18" fill="none" xmlns="http://www.w3.org/2000/svg">
<path d="M6.64906 5.58984H0V6.78516H6.64906V5.58984Z" fill="white"/>
<path d="M19.0187 5.58984H12.3696V6.78516H19.0187C19.0187 6.36483 19.0187 5.95888 19.0187 5.58984Z" fill="white"/>
<path d="M12.3696 4.53517H19.0187C19.0187 4.17074 19.0187 3.92735 19.0187 3.86719C19.0187 2.99486 18.2688 2.28516 17.3471 2.28516H12.3696V4.53517Z" fill="white"/>
<path d="M6.64906 4.53517V2.28516H1.67155C0.749857 2.28516 0 2.99486 0 3.86719V4.53517H6.64906Z" fill="white"/>
<path d="M6.64906 7.83984H0V11.3203C0 12.1927 0.749857 12.9024 1.67155 12.9024H6.64906V7.83984ZM4.79178 10.3711H2.97164C2.66393 10.3711 2.41446 10.135 2.41446 9.84376C2.41446 9.55252 2.66393 9.31641 2.97164 9.31641H4.79178C5.09949 9.31641 5.34896 9.55252 5.34896 9.84376C5.34896 10.135 5.09949 10.3711 4.79178 10.3711Z" fill="white"/>
<path d="M12.3696 7.83984V12.9024H17.3471C18.2688 12.9024 19.0187 12.1927 19.0187 11.3203C19.0187 11.0982 19.0187 9.50063 19.0187 7.83984H12.3696Z" fill="white"/>
<path d="M11.8867 14.4141H11.2552C11.2552 13.5502 11.2552 0.985961 11.2552 0.527346C11.2552 0.23611 11.0058 0 10.698 0H8.32072C8.01301 0 7.76354 0.23611 7.76354 0.527346V14.4141H7.13206C6.6524 14.4141 6.39669 14.9523 6.71562 15.2918L9.09294 17.8231C9.31437 18.0589 9.70425 18.059 9.92582 17.8231L12.3031 15.2918C12.6218 14.9526 12.3668 14.4141 11.8867 14.4141Z" fill="white"/>
</svg>
