<svg viewBox="0 0 23 16" fill="" xmlns="http://www.w3.org/2000/svg">
<path d="M0 7.91186C0 6.88431 0.823301 6.05132 1.83889 6.05132H20.2278C21.2434 6.05132 22.0667 6.88431 22.0667 7.91186C22.0667 8.9394 21.2434 9.77239 20.2278 9.77239H1.83889C0.8233 9.77239 0 8.9394 0 7.91186Z" fill=""/>
<path d="M12.9466 15.4551C12.2285 14.7285 12.2285 13.5504 12.9466 12.8239L19.0147 6.6844C19.7328 5.95782 20.8971 5.95782 21.6152 6.6844C22.3334 7.41099 22.3334 8.58902 21.6152 9.3156L15.5472 15.4551C14.8291 16.1816 13.6648 16.1816 12.9466 15.4551Z" fill=""/>
<path d="M21.6152 9.3156C20.8971 10.0422 19.7328 10.0422 19.0146 9.3156L12.9466 3.17614C12.2285 2.44955 12.2285 1.27152 12.9466 0.544939C13.6647 -0.181646 14.829 -0.181646 15.5472 0.544939L21.6152 6.6844C22.3334 7.41099 22.3334 8.58902 21.6152 9.3156Z" fill=""/>
</svg>
