<svg width="12" height="8" viewBox="0 0 12 8" fill="none" xmlns="http://www.w3.org/2000/svg">
<path d="M0.306019 2.76867C0.714045 2.36065 1.37559 2.36065 1.78361 2.76867L5.23133 6.21639C5.63935 6.62441 5.63935 7.28595 5.23133 7.69398C4.8233 8.10201 4.16176 8.10201 3.75373 7.69398L0.306019 4.24627C-0.102007 3.83824 -0.102006 3.1767 0.306019 2.76867Z" fill="#4FC86F"/>
<path d="M3.75373 7.69398C3.34571 7.28595 3.34571 6.62441 3.75373 6.21639L9.6641 0.306019C10.0721 -0.102006 10.7337 -0.102006 11.1417 0.306019C11.5497 0.714045 11.5497 1.37559 11.1417 1.78361L5.23133 7.69398C4.8233 8.10201 4.16176 8.10201 3.75373 7.69398Z" fill="#4FC86F"/>
</svg>
