<svg xmlns="http://www.w3.org/2000/svg" width="18" height="18" viewBox="0 0 18 18" fill="none">
<path d="M17.55 7.65011H13.0866L14.3016 6.13137C14.3762 6.03813 14.4107 5.91908 14.3975 5.8004C14.3843 5.68173 14.3245 5.57315 14.2313 5.49856C14.1381 5.42397 14.019 5.38947 13.9003 5.40266C13.7817 5.41584 13.6731 5.47563 13.5985 5.56887L11.7985 7.81885C11.7349 7.8988 11.7003 7.99794 11.7003 8.1001C11.7003 8.20226 11.7349 8.30141 11.7985 8.38135L13.5985 10.6313C13.6731 10.7246 13.7817 10.7844 13.9003 10.7975C14.019 10.8107 14.1381 10.7762 14.2313 10.7016C14.3245 10.6271 14.3843 10.5185 14.3975 10.3998C14.4107 10.2811 14.3762 10.1621 14.3016 10.0688L13.0866 8.5501H17.55C17.6694 8.5501 17.7838 8.50269 17.8682 8.4183C17.9526 8.33391 18 8.21945 18 8.1001C18 7.98076 17.9526 7.8663 17.8682 7.78191C17.7838 7.69752 17.6694 7.65011 17.55 7.65011Z" fill="white"/>
<path d="M6.87343 2.71711L0.573476 0.917121C0.50646 0.898452 0.436062 0.89536 0.367668 0.908081C0.299273 0.920802 0.234695 0.949 0.178874 0.990516C0.123345 1.03257 0.0783026 1.0869 0.0472707 1.14926C0.0162388 1.21162 5.98302e-05 1.28032 0 1.34997V15.7499C2.38228e-05 15.8477 0.0319018 15.9428 0.0908127 16.0209C0.149724 16.099 0.232463 16.1558 0.326517 16.1827L6.62647 17.9827C6.69344 18.0018 6.76394 18.0051 6.83241 17.9923C6.90088 17.9796 6.96545 17.9511 7.02104 17.9091C7.07663 17.8672 7.12173 17.8129 7.15277 17.7505C7.18382 17.6882 7.19996 17.6195 7.19994 17.5498V3.14996C7.19992 3.05214 7.16804 2.95698 7.10913 2.87888C7.05022 2.80079 6.96748 2.744 6.87343 2.71711ZM2.69998 9.44991C2.69998 9.56926 2.65257 9.68371 2.56818 9.76811C2.48379 9.8525 2.36933 9.89991 2.24998 9.89991C2.13064 9.89991 2.01618 9.8525 1.93179 9.76811C1.8474 9.68371 1.79999 9.56926 1.79999 9.44991V8.54992C1.79999 8.43057 1.8474 8.31611 1.93179 8.23172C2.01618 8.14733 2.13064 8.09992 2.24998 8.09992C2.36933 8.09992 2.48379 8.14733 2.56818 8.23172C2.65257 8.31611 2.69998 8.43057 2.69998 8.54992V9.44991Z" fill="white"/>
<path d="M9.45001 0H0.45008C0.44738 0 0.445175 0.00179998 0.44252 0.00188998C0.445535 0.00188998 0.44837 0.000449964 0.45152 0.000449964C0.575113 0.000321724 0.698137 0.0171742 0.817142 0.0505346L7.12092 1.85183C7.40248 1.93335 7.65005 2.10389 7.82656 2.33792C8.00307 2.57194 8.09901 2.85685 8.10002 3.14998V16.1999H9.45001C9.56936 16.1999 9.68382 16.1525 9.76821 16.0681C9.8526 15.9837 9.90001 15.8692 9.90001 15.7499V0.449996C9.90001 0.33065 9.8526 0.216192 9.76821 0.131801C9.68382 0.0474103 9.56936 0 9.45001 0Z" fill="white"/>
</svg>