<svg width="36" height="36" viewBox="0 0 36 36" fill="none" xmlns="http://www.w3.org/2000/svg">
<path d="M35.9999 18.4141C35.9999 17.1905 35.8987 15.9604 35.6828 14.7567H18.3626V21.6879H28.2811C27.8695 23.9234 26.547 25.9009 24.6105 27.1575V31.6549H30.5279C34.0027 28.52 35.9999 23.8903 35.9999 18.4141Z" fill="#4285F4"/>
<path d="M18.3627 36C23.3152 36 27.4918 34.4061 30.5348 31.6547L24.6174 27.1573C22.9711 28.2552 20.8457 28.8769 18.3695 28.8769C13.5789 28.8769 9.51705 25.7089 8.05964 21.4496H1.95337V26.0859C5.0706 32.164 11.4198 36 18.3627 36Z" fill="#34A853"/>
<path d="M8.0596 21.4498C7.29042 19.2143 7.29042 16.7937 8.0596 14.5582V9.92194H1.95333C-0.651111 15.0079 -0.651111 21 1.95333 26.086L8.0596 21.4498Z" fill="#FBBC04"/>
<path d="M18.3627 7.12427C20.9806 7.08458 23.5109 8.0502 25.4068 9.82269L30.6495 4.68378C27.3298 1.62821 22.9306 -0.0516974 18.3627 0.00121296C11.4198 0.00121296 5.0706 3.83721 1.95337 9.9219L8.05289 14.5582C9.5103 10.2923 13.5789 7.12427 18.3627 7.12427Z" fill="#EA4335"/>
</svg>
