<svg width="393" height="393" fill="none" xmlns="http://www.w3.org/2000/svg"><g opacity=".15" fill="#ADB0BA"><path d="M78.1016 152.409c-17.4284 4.396-35.1328-6.229-39.5129-23.596-4.3802-17.367 6.229-35.1329 23.5963-39.513 17.3673-4.3802 35.1328 6.229 39.513 23.596 4.38 17.368-6.1679 35.118-23.5964 39.513zm-12.832-50.879c-10.6405 2.684-17.134 13.558-14.4504 24.198 2.6836 10.641 13.5573 17.134 24.1978 14.451 10.6405-2.684 17.1341-13.558 14.4505-24.198-2.6836-10.641-13.4962-17.1496-24.1979-14.451zM152.843 346.377c-30.27 7.634-61.0537-10.749-68.6882-41.019-7.6344-30.271 10.7488-61.054 41.0192-68.689 30.27-7.634 61.054 10.749 68.688 41.02 7.619 30.209-10.748 61.053-41.019 68.688zM128.259 248.9c-23.483 5.922-37.7962 29.89-31.8737 53.373 5.9227 23.483 29.8907 37.796 53.3727 31.873 23.483-5.922 37.796-29.89 31.874-53.373-5.938-23.543-29.83-37.811-53.373-31.873z"/><path d="M143.342 315.667c-8.134 1.791-15.803-.763-16.882-5.044-.571-2.262.599-6.135 3.167-6.782 2.813-.71 6.14 2.679 11.309 2.286l-2.761-10.946c-6.778-.828-14.78-1.867-16.954-10.489-2.16-8.561 3.106-14.247 10.014-17.03l-.463-1.835c-.231-.917.638-2.112 2.106-2.482 1.284-.324 2.784.208 3.031 1.187l.432 1.712c4.189-.926 12.355-1.815 13.527 2.832.463 1.835.165 5.813-2.77 6.553-2.201.555-4.025-1.261-8.521-.518l2.483 9.846c6.686.72 14.643 2.095 16.941 11.207 2.098 8.317-2.004 14.75-9.569 18.024l.494 1.956c.231.918-.822 2.159-2.106 2.483-1.467.37-2.784-.209-3.031-1.187l-.447-1.773zm-7.178-31.297l-2.02-8.011c-2.842 1.368-3.741 3.22-3.325 4.871.433 1.973 2.515 2.749 5.345 3.14zm6.938 11.519l2.267 8.99c2.124-1.121 3.635-2.868 3.033-5.253-.555-2.202-2.622-3.176-5.3-3.737zM297.85 95.8156c-.428.108-.81.1394-1.253.1862-.383.0314-.842.0171-1.255-.0739-.398-.0297-.826-.1818-1.178-.2882-.368-.1674-.796-.3195-1.103-.5024-.306-.1829-.704-.4727-.965-.7322-.322-.2441-.598-.5648-.812-.9008-.215-.3361-.43-.6722-.66-1.0694-.154-.3515-.323-.7641-.416-1.131-.092-.3669-.139-.8104-.186-1.2539-.031-.3824-.017-.8413.074-1.2545.03-.3977.182-.8263.288-1.1784.152-.4286.32-.796.503-1.1023.228-.3829.472-.7046.732-.9652.305-.3371.565-.5977.901-.8126.336-.2148.672-.4296 1.069-.6599.749-.384 1.544-.5845 2.385-.6015.382-.0314.841-.0171 1.254.0739.398.0297.827.1818 1.179.2881.367.1675.796.3196 1.102.5025.383.2287.705.4727.965.7322.322.2441.598.5647.813.9008.215.3361.43.6722.66 1.0694.169.4126.323.7641.431 1.1922.108.428.139.8104.17 1.1927.032.3824.017.8413-.074 1.2545-.029.3977-.181.8263-.288 1.1784-.152.4286-.319.796-.502 1.1023-.229.3829-.473.7046-.732.9652-.306.3371-.565.5977-.901.8126-.336.2148-.672.4296-1.07.6599-.351.1537-.764.3228-1.131.4153z"/><path d="M328.664 150.94c-4.22 1.065-7.809 3.336-10.48 6.416-5.226-4.731-12.649-6.826-19.926-4.991a20.6968 20.6968 0 00-12.524 9.142c-4.487-2.575-9.919-3.482-15.361-2.109l-1.101.277c-2.568.648-4.952 1.77-7.045 3.273l-7.958-31.555 73.872-18.631c3.364-.848 5.421-4.294 4.573-7.657l-18.091-71.7319c-.848-3.3634-4.294-5.4213-7.658-4.573L112.378 77.8764c-.917.2313-1.727.6307-2.368 1.1827-13.9318-13.2022-34.0587-19.2483-53.9944-14.2203C25.1336 72.6274 6.3389 104.1 14.1275 134.982c7.7887 30.882 39.2612 49.677 70.1432 41.888 17.7343-4.473 31.4293-16.707 38.4643-32.141l3.162 12.537c.848 3.363 4.294 5.421 7.657 4.573l77.297-19.495 19.711 78.153-10.886 2.745c-6.665 1.681-12.255 5.823-15.776 11.719-.595.995-1.113 2.037-1.569 3.062-19.811-23.361-51.85-34.859-83.527-26.87-44.32 11.243-71.2546 56.346-60.0883 100.621 11.1663 44.274 56.2693 71.208 100.5433 60.042 43.663-11.012 70.432-54.967 60.521-98.648 3.045.728 6.228.966 9.5.531l27.392-1.77c13.428-.655 14.462 3.702 17.61 16.698.323 1.284 2.051 8.133 2.051 8.133l-.245.061c-3.363.849-5.421 4.295-4.573 7.658l7.712 30.576c.848 3.364 4.294 5.421 7.657 4.573l88.243-22.255c3.364-.849 5.422-4.295 4.573-7.658l-7.711-30.576c-.849-3.363-4.294-5.421-7.658-4.573l-2.14.54-1.758-6.972c15.811-9.516 14.73-22.057 13.403-27.316l-18.692-74.116c-2.931-11.619-14.8-18.707-26.48-15.762zM121.578 88.5646l182.418-46.0071 15.006 59.5015-67.756 17.089-.34-1.346c-.863-3.424-2.46-6.404-4.592-8.923l25.256-6.37c3.363-.848 5.421-4.2941 4.573-7.6575-.848-3.3633-4.294-5.4212-7.657-4.5729L130.77 125.011l-9.192-36.4464zM81.1861 164.639c-24.1552 6.093-48.7359-8.586-54.8281-32.742-6.0921-24.155 8.587-48.7356 32.7422-54.8278 24.1552-6.0921 48.7358 8.587 54.8278 32.7418 6.092 24.156-8.587 48.736-32.7419 54.828zm55.3989-16.573l-2.746-10.885 73.383-18.508c-.681 3.229-.659 6.67.189 10.034l.34 1.345-71.182 17.953.016.061zm19.59 211.52c-37.548 9.469-75.759-13.349-85.2288-50.897-9.4698-37.548 13.3491-75.759 50.8968-85.229 37.548-9.469 75.759 13.35 85.228 50.897 9.47 37.548-13.349 75.759-50.896 85.229zm209.752-52.902l-76.012 19.171-4.627-18.345 76.013-19.171 4.626 18.345zm-4.321-62.781c1.511 5.993-2.271 11.11-11.165 15.304-2.735 1.275-4.182 4.307-3.442 7.242l2.961 11.741-61.458 15.501s-1.712-6.788-2.02-8.011c-3.056-12.889-6.619-27.535-30.509-26.323l-.062.016-27.651 1.77c-.123.031-.321.016-.444.047-6.652.962-12.916-3.247-14.567-9.79-.863-3.424-.32-6.944 1.463-9.93 1.784-2.987 4.624-5.134 8.049-5.998l17-4.287c1.651-.417 3.011-1.475 3.895-2.869.884-1.393 1.095-3.138.678-4.789l-21.253-84.268 5.198-1.311c3.364-.848 5.421-4.294 4.573-7.657-.848-3.364-4.294-5.421-7.657-4.573l-5.198 1.311-.34-1.346c-1.326-5.259 1.89-10.558 7.088-11.869s10.559 1.89 11.87 7.088l15.238 60.419c.771 3.057 3.758 5.101 6.908 4.697 3.15-.405 5.531-3.086 5.509-6.268-.023-3.701 2.494-6.873 6.102-7.783l1.101-.278c4.281-1.079 8.706 1.512 9.801 5.854.849 3.363 4.295 5.421 7.658 4.573 3.363-.849 5.421-4.294 4.573-7.658-1.08-4.28 1.512-8.706 5.853-9.801 4.893-1.234 9.931 1.723 11.18 6.676l1.203 4.77c.849 3.363 4.295 5.421 7.658 4.573 3.363-.848 5.421-4.294 4.573-7.658-1.08-4.28 1.511-8.706 5.853-9.801 4.892-1.234 9.931 1.723 11.18 6.676l18.662 73.994-.061.016z"/></g></svg>