<svg width="18" height="18" viewBox="0 0 18 18" xmlns="http://www.w3.org/2000/svg">
<path d="M1.5 10.8883H8.4375V18H2.8125C2.0925 18 1.5 17.4086 1.5 16.6899V10.8883Z" fill="currentColor"/>
<path d="M16.5 10.8883V16.6899C16.5 17.4086 15.9075 18 15.1875 18H9.5625V10.8883H16.5Z" fill="currentColor"/>
<path d="M0 6.58385V8.45534C0 9.17399 0.5925 9.76538 1.3125 9.76538H1.5H8.4375V8.64249V5.2738H1.3125C0.5925 5.2738 0 5.8652 0 6.58385Z" fill="currentColor"/>
<path d="M16.6875 5.2738H9.5625V8.64249V9.76538H16.5H16.6875C17.4075 9.76538 18 9.17399 18 8.45534V6.58385C18 5.8652 17.4075 5.2738 16.6875 5.2738Z" fill="currentColor"/>
<path d="M8.9998 6.0554C8.8363 6.0554 8.6803 5.98428 8.57455 5.86076C8.4673 5.73724 8.42005 5.5733 8.4433 5.4116C8.7208 3.54011 10.1855 0 13.7465 0C15.779 0.000748596 16.4998 1.09669 16.4998 2.03543C16.4998 3.70406 14.1725 6.0554 8.9998 6.0554ZM13.7465 1.12364C11.06 1.12364 10.04 3.67261 9.7018 4.91603C11.8213 4.81722 13.1578 4.28197 13.9273 3.82608C14.9945 3.19351 15.3748 2.48609 15.3748 2.03469C15.3748 1.36245 14.534 1.12364 13.7465 1.12364Z" fill="currentColor"/>
<path d="M9.00097 6.05538C3.82823 6.05538 1.50098 3.70404 1.50098 2.03542C1.50098 1.09668 2.22248 0.000732422 4.25498 0.000732422C7.81522 0.000732422 9.27997 3.54084 9.55747 5.41234C9.58072 5.57403 9.53347 5.73798 9.42622 5.86149C9.32047 5.98426 9.16447 6.05538 9.00097 6.05538ZM4.25498 1.12363C3.46748 1.12363 2.62598 1.36318 2.62598 2.03542C2.62598 2.99137 4.30073 4.73336 8.29822 4.91676C7.96072 3.6726 6.94072 1.12363 4.25498 1.12363Z" fill="currentColor"/>
</svg>
