<svg class="" width="121" height="16" fill="none" xmlns="http://www.w3.org/2000/svg"><path d="M0 10.0926v3.6541l7.65032-4.98616-2.89546-1.76689L0 10.0926z" fill="#00BA97"/><path d="M0 .212891V3.86691l4.75486 3.12674 2.89546-1.77613L0 .212891z" fill="#fff"/><path d="M15.2725 13.7466v-3.654l-4.7549-3.10822-2.8677 1.77613 7.6226 4.98609z" fill="#00BA97"/><path d="M15.2725.212891L7.6499 5.21752l2.8677 1.76688 4.7549-3.11749V.212891z" fill="#fff"/><path d="M9.27819 11.6465l-1.63737-.999-1.63737 1.0083-2.7012 1.7576v2.0722l4.33857-2.8307 4.32928 2.8307v-2.0722l-2.69191-1.7669z" fill="#00BA97"/><path d="M28.7696.777263c-.7955-.360777-1.7021-.53654-2.7289-.53654h-5.717V15.1251h3.099V9.73193h2.618c1.0083 0 1.9149-.18501 2.7104-.54579.7956-.37002 1.4154-.90656 1.8779-1.60962.4626-.70305.6938-1.56336.6938-2.58094 0-1.03608-.2312-1.91489-.6753-2.61795-.4625-.70305-1.0916-1.23959-1.8779-1.600367zm-.8233 5.282147c-.1758.30527-.4255.54579-.7493.72155-.3238.17577-.703.25902-1.1378.25902h-2.6365V2.94193h2.6365c.444 0 .8233.08325 1.1378.25901.3238.17577.5735.41629.7493.72156.1758.30527.2683.66605.2683 1.08233 0 .38853-.0833.74006-.2683 1.05458zM41.3321 5.86468c-.3885-.59204-.9436-1.05458-1.6466-1.3876-.7031-.33303-1.5171-.49954-2.4422-.49954-.777 0-1.4893.12026-2.1369.36078-.6568.24051-1.2118.58279-1.6744 1.01757-.4625.44404-.8048.96207-1.0175 1.58187l2.3959 1.13784c.185-.48104.481-.86957.888-1.15634.4071-.29602.8789-.44403 1.4061-.44403.5551 0 .9991.13876 1.3321.41628.3238.27752.4903.62904.4903 1.03608v.29602l-3.0157.49028c-.8695.12951-1.5911.36078-2.1646.67531-.5828.32377-1.0084.7123-1.2859 1.1933-.2775.4718-.4163 1.0176-.4163 1.6282 0 .6568.1573 1.2118.4626 1.6928.3052.4718.7493.8326 1.3228 1.0916.5736.2498 1.2489.3793 2.0352.3793.5828 0 1.1193-.074 1.6003-.2313.4811-.1572.9158-.3885 1.2951-.703.1295-.1018.259-.222.3793-.3423v1.0361h2.7937V7.93684c-.0093-.78631-.2035-1.48011-.6013-2.07216zm-2.4052 4.90282c0 .4441-.1017.8419-.3052 1.2119-.2036.37-.4996.6568-.8696.8696-.37.2127-.8048.3237-1.2951.3237-.37 0-.6845-.0925-.9436-.2775-.2497-.185-.3792-.444-.3792-.777 0-.3608.111-.6383.3422-.8326.222-.1943.5551-.333.9806-.407l2.4792-.4441v.333h-.0093zM54.4312 4.21826h-3.469l-2.1185 3.11749-2.1184-3.11749h-3.4782l3.8298 5.43016-3.8113 5.47638h3.4782l2.0999-3.1545 2.0907 3.1545h3.4598l-3.7928-5.47638 3.8298-5.43016zM64.3293 3.41351c.666-.41628 1.4431-.6198 2.3219-.6198.9066 0 1.6744.24052 2.3127.7123.629.47179 1.073 1.07308 1.3321 1.78539l2.7197-1.3136c-.2498-.73081-.6753-1.39686-1.2766-1.99815-.6013-.6013-1.3321-1.082333-2.1924-1.44311C68.6956.175763 67.7243 0 66.6419 0c-1.0823 0-2.0721.194265-2.9879.573543-.9159.379278-1.7114.915817-2.3867 1.600367-.6753.68455-1.2026 1.49862-1.5819 2.44219-.37.94357-.555 1.96114-.555 3.07123 0 1.11008.1942 2.12766.5735 3.06197.3793.9343.9066 1.7484 1.5911 2.4422.6753.6938 1.4709 1.2303 2.3867 1.6189.9158.3885 1.9057.5828 2.9695.5828 1.0823 0 2.0444-.1758 2.9047-.5366.8603-.3608 1.5911-.8418 2.1924-1.4431.6013-.6013 1.0268-1.2673 1.2766-1.9981l-2.7382-1.3229c-.2498.7216-.6938 1.3136-1.3321 1.7854-.629.4718-1.4061.7123-2.3127.7123-.8788 0-1.6558-.2035-2.3219-.6198-.666-.4163-1.1841-.9898-1.5449-1.7206-.37-.73084-.5457-1.5819-.5457-2.56247 0-.97133.185-1.82239.5457-2.54394.3701-.74006.8881-1.3136 1.5542-1.72988zM80.5366 4.09814c-.7585 0-1.4153.16652-1.9704.49029-.4162.24977-.7493.66605-.9898 1.2581V4.2184h-2.7937V15.125h2.9972V9.25078c0-.81406.2221-1.44311.6753-1.88714.4533-.44403 1.0454-.66605 1.7762-.66605h.9435V4.09814h-.6383zM92.581 7.24303c-.2405-.64754-.592-1.21184-1.0453-1.71137-.4626-.49029-1.0269-.87882-1.6929-1.14709-.6661-.26827-1.4339-.40703-2.2942-.40703-1.0361 0-1.9704.24977-2.7937.74005-.8233.49029-1.4801 1.16559-1.9704 2.01666-.4903.85106-.7308 1.82238-.7308 2.91396 0 1.05459.2313 2.00739.7031 2.87699.4625.8695 1.1285 1.5541 1.9796 2.0721.8511.5088 1.8594.7678 3.0157.7678.7493 0 1.4339-.111 2.0537-.333.629-.222 1.1656-.5273 1.6281-.9251.4626-.3977.7956-.8695 1.0083-1.3968l-2.3959-1.1378c-.2128.37-.5088.666-.8881.8788-.3792.2127-.8325.3237-1.3691.3237-.5828 0-1.0823-.1295-1.4986-.3885-.4163-.259-.7215-.6198-.9158-1.0916-.1017-.2405-.1758-.4995-.2035-.777h7.6411c.0555-.148.0925-.3238.111-.52731.0185-.20352.0277-.41628.0277-.62905-.0092-.7678-.1295-1.47086-.37-2.11841zm-7.345 1.07308c.037-.15726.074-.30527.1295-.44403.185-.49029.4625-.86956.8418-1.11933.37-.24977.8233-.37928 1.3413-.37928.5366 0 .9806.12951 1.3506.38853.3701.25902.6198.61054.7678 1.05458.0555.15726.0833.31452.1018.49028H85.236v.00925zM102.951 0v5.13414c-.287-.28678-.62-.51804-1.008-.70306-.62-.29602-1.332-.45328-2.128-.45328-1.036 0-1.9796.24977-2.8214.75856-.8418.50878-1.5079 1.19334-1.9982 2.0444-.4903.86031-.74 1.82239-.74 2.88622 0 1.05462.2405 2.00742.7308 2.87692.4903.8696 1.1471 1.5542 1.9889 2.0537.8418.5088 1.7946.7586 2.8584.7586.7495 0 1.4435-.1388 2.0815-.4071.49-.2127.907-.4995 1.24-.8603v1.0361h2.793V0h-2.997zm-.352 11.2303c-.231.4533-.555.8049-.971 1.0546-.416.2498-.897.3793-1.443.3793-.5457 0-1.036-.1295-1.4708-.3793-.4348-.2497-.7678-.6105-1.0083-1.0546-.2405-.4532-.3608-.9713-.3608-1.55407 0-.5828.1203-1.10084.3608-1.54487.2405-.44403.5735-.79556 1.0083-1.05458.4348-.25902.9251-.38853 1.4708-.38853.546 0 1.027.12951 1.443.37928.416.24977.74.61055.971 1.05458.232.45328.352.97132.352 1.55412 0 .58277-.111 1.10087-.352 1.55407zM111.147 4.21826h-2.997V15.1248h2.997V4.21826zM111.147.240723h-2.997V3.23795h2.997V.240723zM120 6.81789V4.21844h-2.553V1.73926h-2.997v.79556c0 .55504-.148.98057-.454 1.25809-.296.27752-.73.41628-1.285.41628h-.102v2.59945h1.841v4.38486c0 1.2766.361 2.2756 1.091 2.9879.722.7123 1.749 1.0731 3.072 1.0731.222 0 .462-.0092.721-.0277.25-.0185.481-.0463.675-.074v-2.5625c-.129.0093-.259.0278-.379.037-.12.0093-.231.0185-.324.0185-.416 0-.758-.0555-1.036-.1757-.277-.1203-.49-.3053-.619-.5458-.13-.2498-.204-.5551-.204-.9251V6.81789H120z" fill="#fff"/></svg>