<svg width="429" height="260" viewBox="0 0 429 260" fill="none" xmlns="http://www.w3.org/2000/svg">
<g opacity="0.15">
<path d="M428.44 172.261L418.044 115.046C417.422 111.623 414.139 109.355 410.721 109.975C407.298 110.597 405.028 113.875 405.65 117.298L416.048 174.524C417.06 180.037 415.863 185.616 412.678 190.232C409.493 194.849 404.702 197.948 399.166 198.965L358.621 206.556C355.201 207.197 352.949 210.487 353.589 213.906C354.156 216.934 356.8 219.046 359.772 219.046C360.157 219.046 401.463 211.35 401.463 211.35C410.286 209.73 417.951 204.771 423.047 197.385C428.143 190.001 430.058 181.073 428.44 172.261Z" fill="#ADB0BA"/>
<path d="M328.914 211.86L189.333 237.474C177.943 239.563 166.976 232 164.887 220.614L143.741 105.37C141.651 93.9799 149.215 83.0131 160.602 80.9237L370.457 42.411C375.967 41.3999 381.548 42.5949 386.166 45.781C390.782 48.9664 393.882 53.7574 394.895 59.2706L400.252 88.4785C400.88 91.9006 404.158 94.163 407.584 93.5374C411.005 92.9092 413.27 89.6273 412.642 86.206L407.284 56.9973C405.664 48.1744 400.704 40.5089 393.319 35.4122C385.932 30.3163 377.006 28.4008 368.183 30.0207L367.587 30.1299L366.633 24.9392C365.167 16.9444 360.674 10.001 353.984 5.38717C347.295 0.774202 339.208 -0.958282 331.215 0.507991L115.129 40.1578C98.6302 43.1844 87.6701 59.0732 90.6976 75.576L112.987 197.057C115.675 211.708 128.505 221.991 142.901 221.991C144.716 221.991 146.558 221.827 148.406 221.488L152.114 220.807L152.496 222.887C155.465 239.065 169.63 250.418 185.527 250.418C187.531 250.418 189.565 250.238 191.606 249.863L331.186 224.25C334.608 223.622 336.873 220.339 336.244 216.918C335.617 213.497 332.329 211.231 328.914 211.86ZM146.133 209.098C136.462 210.874 127.151 204.451 125.378 194.784L103.089 73.3035C101.315 63.6325 107.736 54.3217 117.403 52.5489L333.489 12.8991C338.173 12.0383 342.915 13.0544 346.833 15.7577C350.753 18.461 353.385 22.529 354.244 27.2141L355.197 32.4049L158.328 68.5343C140.109 71.8767 128.008 89.4216 131.35 107.644L149.841 208.418L146.133 209.098Z" fill="#ADB0BA"/>
<path d="M224.235 139.945C224.235 170.634 249.203 195.602 279.892 195.602C310.582 195.602 335.549 170.634 335.549 139.945C335.549 109.256 310.582 84.2881 279.892 84.2881C249.203 84.2881 224.235 109.256 224.235 139.945ZM322.952 139.945C322.952 163.689 303.635 183.005 279.892 183.005C256.149 183.005 236.832 163.689 236.832 139.945C236.832 116.202 256.149 96.8849 279.892 96.8849C303.635 96.8849 322.952 116.202 322.952 139.945Z" fill="#ADB0BA"/>
<path d="M7.79582 179.686L45.7778 170.401C49.1571 169.574 51.2264 166.166 50.4009 162.787C49.5754 159.408 46.1658 157.342 42.7873 158.164L4.80449 167.449C1.42518 168.275 -0.644065 171.684 0.181448 175.063C0.884352 177.94 3.45999 179.867 6.29512 179.867C6.78975 179.867 7.29363 179.808 7.79582 179.686Z" fill="#ADB0BA"/>
<path d="M92.0222 225.969L54.0401 235.253C50.6608 236.08 48.5916 239.488 49.4171 242.867C50.12 245.744 52.6956 247.671 55.5308 247.671C56.0254 247.671 56.5293 247.613 57.0315 247.49L95.0135 238.205C98.3928 237.379 100.462 233.97 99.6365 230.592C98.811 227.213 95.4015 225.146 92.0222 225.969Z" fill="#ADB0BA"/>
<path d="M73.9428 187.724L14.8603 202.917C11.491 203.783 9.46212 207.216 10.3288 210.585C11.0602 213.428 13.6182 215.316 16.424 215.316C16.943 215.316 17.4712 215.252 17.9969 215.116L77.0795 199.924C80.4487 199.057 82.4776 195.624 81.611 192.256C80.7443 188.886 77.3096 186.856 73.9428 187.724Z" fill="#ADB0BA"/>
<path d="M74.6623 163.83C75.1427 163.83 75.6298 163.776 76.1168 163.66L84.099 161.772C87.4842 160.971 89.5795 157.578 88.7792 154.193C87.978 150.808 84.5836 148.712 81.2001 149.513L73.2179 151.401C69.8327 152.202 67.7374 155.594 68.5377 158.98C69.2238 161.878 71.8087 163.83 74.6623 163.83Z" fill="#ADB0BA"/>
<path d="M23.5695 243.828L9.22083 247.205C5.8348 248.002 3.73532 251.393 4.53228 254.779C5.21503 257.68 7.80158 259.636 10.6577 259.636C11.1355 259.636 11.6201 259.582 12.1055 259.467L26.4542 256.091C29.8402 255.294 31.9397 251.903 31.1427 248.517C30.3457 245.131 26.9555 243.034 23.5695 243.828Z" fill="#ADB0BA"/>
</g>
</svg>
