<svg width="16" height="18" viewBox="0 0 16 18" fill="currentColor" xmlns="http://www.w3.org/2000/svg">
<path d="M7.39632 8.66452C8.58743 8.66452 9.61691 8.23586 10.4602 7.39611C11.3034 6.55285 11.7286 5.52337 11.7286 4.33226C11.7286 3.14115 11.2999 2.11167 10.4602 1.26841C9.61691 0.425145 8.58743 0 7.39632 0C6.20521 0 5.17573 0.428658 4.33247 1.26841C3.48921 2.10816 3.06055 3.14115 3.06055 4.33226C3.06055 5.52337 3.48921 6.55285 4.32895 7.39611C5.17222 8.23937 6.20521 8.66452 7.39632 8.66452Z" fill="currentColor"/>
<path d="M14.9749 13.8435C14.9503 13.4921 14.9011 13.1091 14.8309 12.7051C14.7571 12.2975 14.6622 11.9145 14.5498 11.5632C14.4338 11.2013 14.2757 10.8394 14.079 10.4985C13.8752 10.1402 13.6363 9.83096 13.3692 9.57447C13.0881 9.30744 12.7473 9.09311 12.3503 8.935C11.9568 8.7804 11.5176 8.69958 11.0502 8.69958C10.8675 8.69958 10.6883 8.77337 10.3475 8.99824C10.1367 9.13527 9.89076 9.29338 9.61319 9.47257C9.37778 9.62366 9.05804 9.7642 8.66452 9.89069C8.28154 10.0137 7.88801 10.0769 7.50503 10.0769C7.11854 10.0769 6.72853 10.0137 6.34555 9.89069C5.95203 9.7642 5.63229 9.62366 5.39688 9.47257C5.12282 9.2969 4.87687 9.13878 4.66254 8.99824C4.31821 8.77337 4.14253 8.69958 3.95982 8.69958C3.49251 8.69958 3.05331 8.7804 2.65979 8.935C2.26275 9.09311 1.92193 9.30744 1.64085 9.57447C1.37381 9.83096 1.13489 10.1402 0.931102 10.4985C0.734341 10.8429 0.576229 11.2013 0.460281 11.5632C0.347846 11.9145 0.252979 12.2975 0.179193 12.7051C0.105408 13.1091 0.0562175 13.4921 0.0351359 13.8435C0.0105408 14.1878 0 14.5462 0 14.9046C0 15.8427 0.298655 16.6052 0.885425 17.1638C1.4722 17.719 2.24167 18.0001 3.17629 18.0001H11.8373C12.7719 18.0001 13.5414 17.719 14.1246 17.1673C14.7149 16.6087 15.0136 15.8462 15.0136 14.9081C15.0136 14.5427 14.9995 14.1878 14.9749 13.8435Z" fill="currentColor"/>
</svg>
