<svg width="18" height="18" viewBox="0 0 18 18" fill="none" xmlns="http://www.w3.org/2000/svg">
<path d="M12.9883 8.7666C12.9883 8.21432 13.436 7.7666 13.9883 7.7666H15.3059C15.8582 7.7666 16.3059 8.21432 16.3059 8.7666V12.6042C16.3059 13.1565 15.8582 13.6042 15.3059 13.6042H13.9883C13.436 13.6042 12.9883 13.1565 12.9883 12.6042V8.7666Z" fill="white"/>
<path d="M7.34082 8.7666C7.34082 8.21432 7.78854 7.7666 8.34082 7.7666H9.65846C10.2107 7.7666 10.6585 8.21432 10.6585 8.7666V12.6042C10.6585 13.1565 10.2107 13.6042 9.65846 13.6042H8.34082C7.78854 13.6042 7.34082 13.1565 7.34082 12.6042V8.7666Z" fill="white"/>
<path d="M16.9412 14.6592C16.4082 14.6592 1.70386 14.6592 1.05882 14.6592C0.474988 14.6592 0 15.1324 0 15.7142V16.945C0 17.5267 0.474988 18 1.05882 18H16.9412C17.525 18 18 17.5267 18 16.945V15.7142C18 15.1324 17.525 14.6592 16.9412 14.6592Z" fill="white"/>
<path d="M17.3365 3.31193C9.18091 -0.0106817 9.39914 0.0781835 9.39328 0.0758274C9.14163 -0.024502 8.86185 -0.0265416 8.60301 0.0773044L0.663529 3.31193C0.260365 3.47356 0 3.8575 0 4.29065V5.65668C0 6.2384 0.474988 6.71167 1.05882 6.71167H16.9412C17.525 6.71167 18 6.2384 18 5.65668V4.29065C18 3.8575 17.7396 3.47356 17.3365 3.31193ZM9.52941 3.9335C9.52941 4.22481 9.29237 4.46099 9 4.46099C8.70762 4.46099 8.47058 4.22481 8.47058 3.9335V2.80818C8.47058 2.51686 8.70762 2.28068 9 2.28068C9.29237 2.28068 9.52941 2.51686 9.52941 2.80818V3.9335Z" fill="white"/>
<path d="M1.69385 8.7666C1.69385 8.21432 2.14156 7.7666 2.69385 7.7666H4.01149C4.56378 7.7666 5.01149 8.21432 5.01149 8.7666V12.6042C5.01149 13.1565 4.56378 13.6042 4.01149 13.6042H2.69385C2.14156 13.6042 1.69385 13.1565 1.69385 12.6042V8.7666Z" fill="white"/>
</svg>
