<svg xmlns="http://www.w3.org/2000/svg" width="21" height="22" viewBox="0 0 21 22" fill="none">
<g clip-path="url(#clip0_538_972)">
<path d="M17.9397 3.19705C15.9656 1.1366 13.3406 0.00125713 10.5438 0C4.78071 0 0.0906817 4.89019 0.0883745 10.9009C0.087703 12.8223 0.569026 14.6978 1.48389 16.351L0.000595093 22L5.54316 20.4842C7.07024 21.3528 8.78964 21.8105 10.5394 21.8113H10.5438H10.5438C16.3061 21.8113 20.9968 16.9202 20.9992 10.9098C21.0002 7.99667 19.9136 5.25764 17.9397 3.19705ZM10.5438 19.97H10.5405C8.98085 19.9692 7.45144 19.5325 6.11743 18.7068L5.79996 18.5105L2.51088 19.41L3.38902 16.0665L3.18218 15.7237C2.31222 14.2809 1.85295 12.6136 1.8536 10.9016C1.85552 5.90569 5.75369 1.84128 10.5471 1.84128C12.8684 1.84228 15.0501 2.78599 16.6909 4.49857C18.3316 6.21114 19.2345 8.48776 19.2339 10.909C19.2318 15.9051 15.3335 19.97 10.5438 19.97Z" fill="#E0E0E0"/>
<path d="M0.480774 21.3732L1.89632 15.9823C1.02302 14.4046 0.563767 12.6146 0.564318 10.7814C0.566608 5.04533 5.04244 0.378662 10.5418 0.378662C13.211 0.379919 15.7161 1.46335 17.5996 3.42973C19.4836 5.39609 20.5204 8.00981 20.5194 10.7895C20.5171 16.5257 16.041 21.1928 10.5422 21.1928C10.5418 21.1928 10.5425 21.1928 10.5422 21.1928H10.5378C8.86801 21.1922 7.22729 20.755 5.77006 19.9267L0.480774 21.3732Z" fill="url(#paint0_linear_538_972)"/>
<path fill-rule="evenodd" clip-rule="evenodd" d="M7.96023 6.27298C7.76679 5.82442 7.56314 5.81544 7.37911 5.8076C7.22858 5.80086 7.05626 5.80127 6.88422 5.80127C6.71203 5.80127 6.43223 5.86876 6.19562 6.13829C5.95887 6.40782 5.29166 7.05939 5.29166 8.38456C5.29166 9.70988 6.21714 10.9904 6.34614 11.1703C6.47528 11.3499 8.13268 14.1563 10.7575 15.2359C12.939 16.1332 13.3829 15.9547 13.8564 15.9098C14.3299 15.8649 15.3843 15.2584 15.5995 14.6294C15.8148 14.0005 15.8148 13.4615 15.7502 13.3488C15.6856 13.2366 15.5134 13.1692 15.2552 13.0345C14.9969 12.8998 13.7273 12.2481 13.4906 12.1583C13.2538 12.0685 13.0816 12.0236 12.9094 12.2933C12.7373 12.5627 12.2426 13.1692 12.092 13.3488C11.9413 13.5288 11.7906 13.5512 11.5324 13.4166C11.2741 13.2814 10.4424 12.9973 9.45567 12.0797C8.68798 11.3659 8.16967 10.4842 8.01901 10.2145C7.86835 9.94514 8.00286 9.79922 8.13241 9.66495C8.24836 9.54428 8.39068 9.35052 8.51982 9.19324C8.64868 9.03595 8.69173 8.92371 8.77782 8.74412C8.86391 8.56424 8.82087 8.40697 8.7563 8.27228C8.69173 8.13759 8.18985 6.80557 7.96023 6.27298Z" fill="white"/>
<path d="M17.8544 3.16232C15.9029 1.12552 13.308 0.00322821 10.5434 0.00195312C4.84643 0.00195312 0.210239 4.836 0.207949 10.7777C0.207277 12.6771 0.683073 14.531 1.58743 16.1653L0.121185 21.7494L5.60013 20.2509C7.1097 21.1096 8.80935 21.5621 10.539 21.5628H10.5434H10.5434C16.2395 21.5628 20.8763 16.7279 20.8788 10.7864C20.8797 7.90683 19.8056 5.19925 17.8544 3.16232V3.16232ZM10.5434 19.7428H10.5401C8.99835 19.7419 7.48649 19.3102 6.1678 18.4941L5.85396 18.3L2.60265 19.1891L3.4707 15.884L3.26623 15.5452C2.40626 14.119 1.95226 12.4708 1.95293 10.7785C1.95481 5.83989 5.80823 1.82213 10.5467 1.82213C12.8413 1.82312 14.9979 2.75599 16.6199 4.44891C18.2418 6.14183 19.1343 8.3923 19.1337 10.7858C19.1316 15.7245 15.2781 19.7428 10.5434 19.7428Z" fill="white"/>
</g>
<defs>
<linearGradient id="paint0_linear_538_972" x1="10.5001" y1="21.3732" x2="10.5001" y2="0.378697" gradientUnits="userSpaceOnUse">
<stop stop-color="#20B038"/>
<stop offset="1" stop-color="#60D66A"/>
</linearGradient>
<clipPath id="clip0_538_972">
<rect width="21" height="22" fill="white"/>
</clipPath>
</defs>
</svg>