<svg width="28" height="20" fill="none" xmlns="http://www.w3.org/2000/svg"><rect width="28" height="20" rx="2" fill="#fff"/><mask id="a" maskUnits="userSpaceOnUse" x="0" y="0" width="28" height="20"><rect width="28" height="20" rx="2" fill="#fff"/></mask><g mask="url(#a)"><path d="M28 0H0v1.333h28V0zm0 2.667H0V4h28V2.667zM0 5.333h28v1.334H0V5.333zM28 8H0v1.333h28V8zM0 10.667h28V12H0v-1.333zm28 2.666H0v1.334h28v-1.334zM0 16h28v1.333H0V16zm28 2.667H0V20h28v-1.333z" fill="#D02F44"/><path fill="#46467F" d="M0 0h12v9.333H0z"/><g filter="url(#b)"><path d="M2.667 2a.667.667 0 1 1-1.334 0 .667.667 0 0 1 1.334 0zm2.667 0A.667.667 0 1 1 4 2a.667.667 0 0 1 1.333 0zm2 .667a.667.667 0 1 0 0-1.334.667.667 0 0 0 0 1.334zM10.666 2a.667.667 0 1 1-1.333 0 .667.667 0 0 1 1.333 0zM3.334 4a.667.667 0 1 0 0-1.333.667.667 0 0 0 0 1.333zm3.333-.667a.667.667 0 1 1-1.334 0 .667.667 0 0 1 1.334 0zm2 .667a.667.667 0 1 0 0-1.333.667.667 0 0 0 0 1.333zm2 .667a.667.667 0 1 1-1.333 0 .667.667 0 0 1 1.333 0zm-3.333.666a.667.667 0 1 0 0-1.333.667.667 0 0 0 0 1.333zm-2-.666a.667.667 0 1 1-1.334 0 .667.667 0 0 1 1.334 0zM2 5.333A.667.667 0 1 0 2 4a.667.667 0 0 0 0 1.333zM4 6a.667.667 0 1 1-1.333 0A.667.667 0 0 1 4 6zm2 .667a.667.667 0 1 0 0-1.334.667.667 0 0 0 0 1.334zM9.334 6A.667.667 0 1 1 8 6a.667.667 0 0 1 1.334 0zM10 8a.667.667 0 1 0 0-1.333A.667.667 0 0 0 10 8zm-2-.667a.667.667 0 1 1-1.333 0 .667.667 0 0 1 1.333 0zM4.667 8a.667.667 0 1 0 0-1.333.667.667 0 0 0 0 1.333zm-2-.667a.667.667 0 1 1-1.334 0 .667.667 0 0 1 1.334 0z" fill="url(#c)"/></g></g><defs><linearGradient id="c" x1="1.333" y1="1.333" x2="1.333" y2="8" gradientUnits="userSpaceOnUse"><stop/><stop offset="1"/></linearGradient><filter id="b" x="1.333" y="1.333" width="9.333" height="7.667" filterUnits="userSpaceOnUse"><feFlood result="BackgroundImageFix"/><feColorMatrix in="SourceAlpha" values="0 0 0 0 0 0 0 0 0 0 0 0 0 0 0 0 0 0 127 0"/><feOffset dy="1"/><feColorMatrix values="0 0 0 0 0 0 0 0 0 0 0 0 0 0 0 0 0 0 0.06 0"/><feBlend in2="BackgroundImageFix" result="effect1_dropShadow"/><feBlend in="SourceGraphic" in2="effect1_dropShadow" result="shape"/></filter></defs></svg>
